<svg width="9" height="10" viewBox="0 0 9 10" fill="none" xmlns="http://www.w3.org/2000/svg">
<path d="M0.307675 4.0575C0.354761 4.00917 0.532549 3.8025 0.69816 3.6325C1.6691 2.56333 4.20198 0.813333 5.52768 0.279167C5.72901 0.193333 6.23802 0.0116666 6.50998 -7.97011e-08C6.77057 -6.83101e-08 7.01899 0.0599999 7.25604 0.181667C7.55155 0.351667 7.7886 0.619167 7.91849 0.935C8.00211 1.15417 8.132 1.81 8.132 1.82167C8.26189 2.53917 8.33333 3.705 8.33333 4.99333C8.33333 6.22083 8.26189 7.33917 8.15554 8.0675C8.14336 8.07917 8.01347 8.89417 7.8714 9.17333C7.61081 9.68333 7.1018 10 6.55707 10L6.50998 10C6.15521 9.9875 5.40915 9.67083 5.40915 9.65917C4.15489 9.12417 1.68046 7.46 0.685983 6.35417C0.685983 6.35417 0.405905 6.07 0.284132 5.8925C0.0941659 5.6375 -5.00099e-06 5.32167 -4.98718e-06 5.00583C-4.97178e-06 4.65333 0.106344 4.325 0.307675 4.0575Z" fill="white"/>
</svg>
