<svg width="18" height="18" viewBox="0 0 18 18" fill="none" xmlns="http://www.w3.org/2000/svg">
<path d="M8.96367 0C9.26083 0 9.54583 0.118049 9.75596 0.328177C9.96609 0.538305 10.0841 0.8233 10.0841 1.12047V7.84326H16.8069C17.1041 7.84326 17.3891 7.96131 17.5992 8.17144C17.8093 8.38157 17.9274 8.66656 17.9274 8.96373C17.9274 9.26089 17.8093 9.54589 17.5992 9.75602C17.3891 9.96615 17.1041 10.0842 16.8069 10.0842H10.0841V16.807C10.0841 17.1042 9.96609 17.3892 9.75596 17.5993C9.54583 17.8094 9.26083 17.9275 8.96367 17.9275C8.6665 17.9275 8.38151 17.8094 8.17138 17.5993C7.96125 17.3892 7.8432 17.1042 7.8432 16.807V10.0842H1.12041C0.823239 10.0842 0.538244 9.96615 0.328116 9.75602C0.117988 9.54589 -6.10352e-05 9.26089 -6.10352e-05 8.96373C-6.10352e-05 8.66656 0.117988 8.38157 0.328116 8.17144C0.538244 7.96131 0.823239 7.84326 1.12041 7.84326H7.8432V1.12047C7.8432 0.8233 7.96125 0.538305 8.17138 0.328177C8.38151 0.118049 8.6665 0 8.96367 0Z" fill="white"/>
</svg>
